<?xml version="1.0" encoding="iso-8859-1"?>
<!-- Uploaded to: SVG Repo, www.svgrepo.com, Generator: SVG Repo Mixer Tools -->
<svg version="1.1" id="Layer_1" xmlns="http://www.w3.org/2000/svg" xmlns:xlink="http://www.w3.org/1999/xlink" 
	 viewBox="0 0 480.008 480.008" xml:space="preserve">
<ellipse style="fill:#F5BA46;" cx="241.442" cy="186.852" rx="99.202" ry="99.202"/>
<path d="M184,32.004c4.416,0,8-3.576,8-8v-16c0-4.424-3.584-8-8-8s-8,3.576-8,8v16C176,28.428,179.584,32.004,184,32.004z"/>
<path d="M320,112.004v-48c0-4.424-3.576-8-8-8s-8,3.576-8,8V99.98c-17.64-12.736-39.216-19.976-62.56-19.976
	c-0.232,0-0.472,0-0.696,0c-17.592,0-34.128,4.2-48.744,11.832V56.004c0-4.424-3.584-8-8-8s-8,3.576-8,8v46.128
	c-25.536,19.768-41.992,51.672-41.768,86.384c0.376,58.872,48.392,107.488,107.184,107.488c0.232,0,0.472,0,0.696,0
	c59.112,0,106.896-49.76,106.512-108.872c-0.176-28-11.216-53.872-28.984-72.872C319.776,113.676,320,112.628,320,112.004z
	 M242.008,280.004c-0.2,0-0.392,0-0.592,0c-50.016,0-90.864-41.328-91.184-91.416c-0.328-50.28,40.328-92.584,90.608-92.584
	c0.2,0,0.392,0,0.592,0c50.016,0,90.864,41.328,91.184,91.416C332.944,237.7,292.296,280.004,242.008,280.004z"/>
<path d="M312,40.004c4.424,0,8-3.576,8-8v-16c0-4.424-3.576-8-8-8s-8,3.576-8,8v16C304,36.428,307.576,40.004,312,40.004z"/>
<path d="M96,184.004c-4.416,0-8,3.576-8,8v64c0,4.424,3.584,8,8,8s8-3.576,8-8v-64C104,187.58,100.416,184.004,96,184.004z"/>
<path d="M96,136.004c-4.416,0-8,3.576-8,8v16c0,4.424,3.584,8,8,8s8-3.576,8-8v-16C104,139.58,100.416,136.004,96,136.004z"/>
<path d="M400,112.004c-4.424,0-8,3.576-8,8v64c0,4.424,3.576,8,8,8s8-3.576,8-8v-64C408,115.58,404.424,112.004,400,112.004z"/>
<path d="M400,64.004c-4.424,0-8,3.576-8,8v16c0,4.424,3.576,8,8,8s8-3.576,8-8v-16C408,67.58,404.424,64.004,400,64.004z"/>
<path d="M271.896,207.644l-0.056-7.992c-0.04-6.416-2.568-12.424-7.136-16.928c-4.568-4.496-10.856-7.088-17.016-6.872l-16,0.152
	c-0.016,0-0.032,0-0.048,0c-4.384,0-7.976-3.608-8-8l-0.048-8.016c-0.024-4.416,3.536-8.04,7.952-8.064l7.808-0.056
	c0.256,0.016,0.48,0.136,0.752,0.136c0.016,0,0.032,0,0.048,0c0.272,0,0.504-0.136,0.768-0.16l22.608-0.144
	c4.424-0.032,7.984-3.48,7.952-7.896c-0.032-4.408-3.6-7.8-8-7.8c-0.016,0-0.032,0-0.048,0l-15.384-0.056l-0.048-7.92
	c-0.024-4.4-3.608-8.024-8-8.024c-0.016,0-0.032,0-0.048,0c-4.416,0.032-7.976,3.688-7.952,8.104l0.048,7.896h-0.608
	c-13.232,0-23.928,10.864-23.848,24.104l0.048,8.024c0.088,13.176,10.84,23.872,24,23.872c0.048,0,0.104,0,0.152,0h16
	c0.016,0,0.032,0,0.048,0c2.112,0,4.104,0.72,5.624,2.2c1.512,1.504,2.36,3.456,2.376,5.6l0.056,7.968
	c0.032,4.416-3.536,8.016-7.952,8.04l-32,0.2c-4.416,0.032-7.976,3.632-7.952,8.048c0.032,4.4,3.616,7.944,8.008,7.944
	c0.016,0,0.032,0,0.048,0l16-0.104l0.048,8.16c0.024,4.4,3.608,7.944,8,7.944c0.016,0,0.032,0,0.048,0
	c4.416-0.032,7.984-3.632,7.952-8.056l-0.048-8.152C261.28,231.716,271.976,220.884,271.896,207.644z"/>
<circle cx="184" cy="192.004" r="8"/>
<circle cx="296" cy="192.004" r="8"/>
<path style="fill:#4A88DB;" d="M472,472.004h-88c-8.84,0-16-7.16-16-16v-120c0-8.84,7.16-16,16-16h88V472.004z"/>
<rect x="321.44" y="336.004" style="fill:#F8F8FA;" width="46.576" height="120"/>
<path style="fill:#F1998A;" d="M240,391.9h-59.68c-11.224,0-20.32-8.704-20.32-19.6v-0.032c0-8.008,4.992-15.224,12.632-18.256
	l62.64-24.856c3.072-1.224,6.464-1.48,9.696-0.744L320,345.436l-0.536,106.016l-75.792,17.384c-2.416,0.552-4.928,0.552-7.344,0
	L104,438.62l-88.872-57.512C10.672,378.228,8,373.38,8,368.188v-17.352c0-10.416,10.36-17.88,20.632-14.864L160,374.492"/>
<path d="M472,312.004h-88c-10.416,0-19.216,6.712-22.528,16h-40.048c-4.328,0-7.808,3.448-7.952,7.744l-66.744-15.144
	c-4.816-1.088-9.816-0.712-14.416,1.12l-62.64,24.848c-8.088,3.208-14.016,9.72-16.456,17.592l-122.328-35.88
	c-7.456-2.168-15.28-0.784-21.456,3.84C3.44,336.62,0,343.436,0,350.836v17.352c0,7.936,4.032,15.28,10.776,19.64l88.872,57.512
	c0.784,0.504,1.656,0.872,2.568,1.08l132.32,30.216c1.792,0.416,3.632,0.616,5.464,0.616c1.84,0,3.672-0.2,5.464-0.616l69.64-15.976
	c1.448,1.976,3.68,3.344,6.328,3.344h40.048c3.312,9.288,12.112,16,22.528,16h88c4.424,0,8-3.576,8-8v-152
	C480,315.58,476.424,312.004,472,312.004z M311.496,445.076l-69.616,15.968c-1.224,0.288-2.528,0.288-3.768,0L107.16,431.14
	l-87.696-56.752C17.296,372.98,16,370.668,16,368.18v-17.352c0-3.168,1.888-5.048,3.016-5.888c2.112-1.576,4.784-2.072,7.36-1.296
	l127.016,37.304c3.728,11.024,14.392,19.056,26.928,19.056H240c4.416,0,8-3.576,8-8s-3.584-8-8-8h-59.68
	c-6.792,0-12.32-5.256-12.32-11.68c0-4.752,2.976-9.016,7.584-10.848l62.64-24.864c1.584-0.632,3.312-0.768,4.976-0.392l68.768,15.6
	L311.496,445.076z M328,344.004h32v104h-32V344.004z M464,464.004h-80c-4.416,0-8-3.584-8-8v-120c0-4.416,3.584-8,8-8h80V464.004z"
	/>
<path d="M433.432,448.004h-24c-4.424,0-8-3.576-8-8s3.576-8,8-8h24c4.424,0,8,3.576,8,8S437.848,448.004,433.432,448.004z"/>
</svg>